<?xml version="1.0" encoding="UTF-8"?>
<svg xmlns="http://www.w3.org/2000/svg" xmlns:xlink="http://www.w3.org/1999/xlink" width="px" height="px" viewBox="0 0 12 12" version="1.1">
<g id="surface1">
<path style=" stroke:none;fill-rule:nonzero;fill:rgb(0%,0%,0%);fill-opacity:1;" d="M 0 0.859375 C 0 0.382812 0.394531 0 0.882812 0 L 11.117188 0 C 11.605469 0 12 0.382812 12 0.859375 L 12 11.140625 C 12 11.617188 11.605469 12 11.117188 12 L 0.882812 12 C 0.394531 12 0 11.617188 0 11.140625 Z M 3.707031 10.046875 L 3.707031 4.625 L 1.90625 4.625 L 1.90625 10.046875 Z M 2.808594 3.886719 C 3.433594 3.886719 3.824219 3.472656 3.824219 2.949219 C 3.816406 2.417969 3.4375 2.015625 2.820312 2.015625 C 2.203125 2.015625 1.800781 2.417969 1.800781 2.949219 C 1.800781 3.472656 2.191406 3.886719 2.796875 3.886719 Z M 6.488281 10.046875 L 6.488281 7.019531 C 6.488281 6.855469 6.5 6.695312 6.546875 6.578125 C 6.679688 6.257812 6.972656 5.921875 7.472656 5.921875 C 8.125 5.921875 8.382812 6.417969 8.382812 7.148438 L 8.382812 10.046875 L 10.183594 10.046875 L 10.183594 6.9375 C 10.183594 5.273438 9.296875 4.5 8.113281 4.5 C 7.15625 4.5 6.726562 5.023438 6.488281 5.394531 L 6.488281 5.410156 L 6.476562 5.410156 L 6.488281 5.394531 L 6.488281 4.625 L 4.6875 4.625 C 4.710938 5.136719 4.6875 10.046875 4.6875 10.046875 Z M 6.488281 10.046875 "/>
</g>
</svg>
